<?xml version="1.0" standalone="no"?>
<!DOCTYPE svg PUBLIC "-//W3C//DTD SVG 20010904//EN"
 "http://www.w3.org/TR/2001/REC-SVG-20010904/DTD/svg10.dtd">
<svg version="1.0" xmlns="http://www.w3.org/2000/svg"
 width="256.000000pt" height="256.000000pt" viewBox="0 0 256.000000 256.000000"
 preserveAspectRatio="xMidYMid meet">

<g transform="translate(0.000000,256.000000) scale(0.100000,-0.100000)"
fill="#000000" stroke="none">
<path d="M1283 2210 c-34 -5 -90 -17 -125 -28 -93 -28 -665 -280 -726 -320
-177 -115 -230 -341 -125 -534 57 -105 199 -207 338 -243 73 -19 203 -19 270
-1 53 14 544 227 583 252 13 8 32 29 42 47 61 99 -31 227 -163 227 -50 0 -86
-13 -318 -115 -282 -124 -309 -131 -378 -95 -54 27 -87 95 -72 143 7 19 22 43
34 55 33 31 611 282 687 298 83 17 118 17 205 -1 353 -75 511 -457 283 -685
-65 -65 -77 -71 -753 -365 -60 -27 -114 -51 -118 -55 -4 -4 52 -106 126 -226
141 -229 162 -254 241 -275 92 -25 193 36 203 123 6 48 -2 68 -65 171 -19 31
-33 59 -31 61 2 2 114 52 249 110 268 118 350 166 434 256 188 203 226 478
101 735 -78 161 -207 287 -382 375 -152 76 -376 113 -540 90z"/>
</g>
</svg>
